<?xml version="1.0" standalone="no"?>
<!DOCTYPE svg PUBLIC "-//W3C//DTD SVG 20010904//EN"
 "http://www.w3.org/TR/2001/REC-SVG-20010904/DTD/svg10.dtd">
<svg version="1.0" xmlns="http://www.w3.org/2000/svg"
 width="105.000000pt" height="73.000000pt" viewBox="0 0 105.000000 73.000000"
 preserveAspectRatio="xMidYMid meet">

<g transform="translate(0.000000,73.000000) scale(0.100000,-0.100000)"
fill="#000000" stroke="none">
<path d="M357 471 c-3 -13 -1 -18 9 -14 7 2 10 11 7 19 -7 19 -10 18 -16 -5z"/>
<path d="M257 313 c-4 -3 -7 -11 -7 -17 0 -6 5 -5 12 2 6 6 9 14 7 17 -3 3 -9
2 -12 -2z"/>
<path d="M241 226 c-9 -10 -8 -15 2 -19 8 -3 13 3 13 14 0 23 0 23 -15 5z"/>
<path d="M30 128 c0 -9 7 -19 16 -22 15 -6 15 -4 3 11 -7 10 -15 20 -16 22 -2
2 -3 -3 -3 -11z"/>
<path d="M91 106 c-1 -35 -3 -37 -18 -25 -13 11 -13 8 3 -16 l19 -29 3 27 c2
15 1 39 -1 54 -3 22 -4 19 -6 -11z"/>
<path d="M582 91 c0 -23 4 -41 8 -41 7 0 3 70 -5 78 -2 2 -4 -14 -3 -37z"/>
<path d="M663 90 c0 -25 2 -35 4 -22 2 12 2 32 0 45 -2 12 -4 2 -4 -23z"/>
<path d="M153 93 c4 -6 -2 -13 -13 -16 -11 -3 -20 -11 -19 -19 0 -10 2 -10 6
0 2 6 9 12 15 12 6 0 8 -6 5 -13 -3 -7 3 -13 12 -13 13 0 16 7 13 23 -2 13 -9
26 -15 30 -5 3 -7 1 -4 -4z"/>
<path d="M200 71 c0 -17 2 -31 4 -31 8 0 13 51 5 56 -5 3 -9 -9 -9 -25z"/>
<path d="M301 93 c-1 -7 -8 -13 -16 -13 -17 0 -20 -25 -5 -35 19 -12 37 9 29
35 -4 14 -7 19 -8 13z m-1 -33 c0 -5 -4 -10 -10 -10 -5 0 -10 5 -10 10 0 6 5
10 10 10 6 0 10 -4 10 -10z"/>
<path d="M381 72 c0 -16 3 -21 6 -12 3 8 10 18 15 21 5 3 3 9 -6 12 -12 5 -16
0 -15 -21z"/>
<path d="M445 90 c-3 -5 0 -7 8 -4 20 7 32 -15 18 -29 -9 -9 -14 -8 -21 3 -6
9 -10 10 -10 3 0 -20 21 -26 38 -10 13 13 13 19 2 31 -14 18 -26 20 -35 6z"/>
<path d="M694 85 c-3 -8 -4 -20 -1 -27 3 -7 6 -3 6 10 1 12 7 22 16 22 18 0
20 -21 3 -41 -7 -7 -4 -6 6 3 21 18 15 48 -9 48 -9 0 -18 -7 -21 -15z"/>
<path d="M767 93 c-15 -14 -6 -33 16 -32 16 1 18 2 5 6 -10 2 -18 9 -18 15 0
5 7 8 15 4 8 -3 15 -1 15 4 0 11 -23 13 -33 3z"/>
</g>
</svg>
